<svg width="20" height="21" viewBox="0 0 20 21" fill="none" xmlns="http://www.w3.org/2000/svg">
<path d="M17 16.75L4.5 4.25M8.5 9.20131C8.18882 9.54438 8 9.99503 8 10.4886C8 11.5634 8.89543 12.4347 10 12.4347C10.5093 12.4347 10.9741 12.2495 11.3272 11.9445M17.0323 12.4347C17.7209 11.404 18 10.5634 18 10.5634C18 10.5634 16.1795 4.75 10 4.75C9.65308 4.75 9.31989 4.76832 9 4.80291M14.5 14.9579C13.3521 15.6901 11.8744 16.2079 10 16.1773C3.89744 16.0775 2 10.5634 2 10.5634C2 10.5634 2.88155 7.7484 5.5 6.0361" stroke="#2F2F2F" stroke-opacity="0.48" stroke-width="1.5" stroke-linecap="round"/>
</svg>
