<svg width="24" height="24" viewBox="0 0 24 24" fill="none" xmlns="http://www.w3.org/2000/svg">
<path d="M11.7008 21.5998H5.70077C4.37529 21.5998 3.30077 20.5253 3.30078 19.1998L3.30087 4.79989C3.30088 3.47441 4.3754 2.3999 5.70087 2.3999H16.5011C17.8266 2.3999 18.9011 3.47442 18.9011 4.7999V9.5999M7.50116 7.1999H14.7012M7.50116 10.7999H14.7012M14.7012 15.5539V18.4982C14.7012 19.9532 16.2526 21.2877 17.7075 21.2877C19.1625 21.2877 20.7012 19.9532 20.7012 18.4982V14.779C20.7012 14.0088 20.2583 13.2271 19.2733 13.2271C18.2195 13.2271 17.7075 14.0087 17.7075 14.779V18.3433M7.50116 14.3999H11.1012" stroke="black" stroke-width="2" stroke-linecap="round" stroke-linejoin="round"/>
</svg>
