<svg width="32" height="32" viewBox="0 0 32 32" fill="none" xmlns="http://www.w3.org/2000/svg">
<path d="M15.5994 28.8H7.5994C5.83209 28.8 4.3994 27.3673 4.39941 25.6L4.39954 6.40005C4.39955 4.63275 5.83223 3.20007 7.59954 3.20007H21.9999C23.7672 3.20007 25.1999 4.63276 25.1999 6.40007V12.8001M9.99991 9.60007H19.5999M9.99991 14.4001H19.5999M19.5999 20.7387V24.6645C19.5999 26.6045 21.6685 28.3837 23.6084 28.3837C25.5484 28.3837 27.5999 26.6045 27.5999 24.6645V19.7056C27.5999 18.6785 27.0095 17.6363 25.6961 17.6363C24.2911 17.6363 23.6084 18.6785 23.6084 19.7056V24.4579M9.99991 19.2001H14.7999" stroke="black" stroke-width="2" stroke-linecap="round" stroke-linejoin="round"/>
</svg>
