<svg width="24" height="24" viewBox="0 0 24 24" fill="none" xmlns="http://www.w3.org/2000/svg">
<path d="M18.2537 17.85C20.1552 17.5306 21 16.4491 21 15.1641C21 13.6278 19.216 12.3824 17.0152 12.3824M16.0924 9.28265C17.0159 9.28265 17.7646 8.53378 17.7646 7.60999C17.7646 6.68621 17.0159 5.93734 16.0924 5.93734C15.1688 5.93734 14.4202 6.68621 14.4202 7.60999C14.4202 8.53378 15.1688 9.28265 16.0924 9.28265ZM11.2625 7.42936C11.2625 8.95004 10.2011 10.0307 8.89183 10.0307C7.58253 10.0307 6.52113 8.95004 6.52113 7.42936C6.52113 5.90867 7.58253 5 8.89183 5C10.2011 5 11.2625 5.90867 11.2625 7.42936ZM15.0703 16.1679C15.0703 17.732 13.2414 19 9.03513 19C4.82883 19 3 17.732 3 16.1679C3 14.6037 5.70202 13.3357 9.03513 13.3357C12.3682 13.3357 15.0703 14.6037 15.0703 16.1679Z" stroke="white" stroke-width="1.5" stroke-linecap="round" stroke-linejoin="round"/>
</svg>
