<svg width="24" height="24" viewBox="0 0 24 24" fill="none" xmlns="http://www.w3.org/2000/svg">
<path d="M3.4125 0C2.3625 0 1.5 0.8625 1.5 1.9125V22.0875C1.5 23.1375 2.3625 24 3.4125 24H20.5875C21.6375 24 22.5 23.1375 22.5 22.0875V7.6125L15.4125 0H3.4125Z" fill="#8C181A"/>
<path d="M22.4994 7.6502V8.0252H17.6994C17.6994 8.0252 15.3369 7.5377 15.4119 5.5127C15.4119 5.5127 15.4869 7.6502 17.6619 7.6502H22.4994Z" fill="#6B0D12"/>
<path opacity="0.5" d="M15.4121 0V5.475C15.4121 6.1125 15.8246 7.65 17.6996 7.65H22.4996L15.4121 0Z" fill="white"/>
<path d="M7.08711 18.3748H5.84961V19.9123C5.84961 20.0623 5.73711 20.1748 5.54961 20.1748C5.39961 20.1748 5.28711 20.0623 5.28711 19.9123V16.0873C5.28711 15.8623 5.47461 15.6748 5.69961 15.6748H7.08711C7.98711 15.6748 8.51211 16.3123 8.51211 17.0248C8.51211 17.7748 7.98711 18.3748 7.08711 18.3748ZM7.04961 16.1623H5.84961V17.8873H7.04961C7.57461 17.8873 7.94961 17.5498 7.94961 17.0248C7.94961 16.4998 7.57461 16.1623 7.04961 16.1623ZM10.9496 20.1748H9.82461C9.59961 20.1748 9.41211 19.9873 9.41211 19.7623V16.0873C9.41211 15.8623 9.59961 15.6748 9.82461 15.6748H10.9496C12.3371 15.6748 13.2746 16.6498 13.2746 17.9248C13.2746 19.1998 12.3746 20.1748 10.9496 20.1748ZM10.9496 16.1623H9.97461V19.6498H10.9496C12.0371 19.6498 12.6746 18.8623 12.6746 17.8873C12.7121 16.9498 12.0746 16.1623 10.9496 16.1623ZM17.0621 16.1623H14.8871V17.6248H17.0246C17.1746 17.6248 17.2496 17.7373 17.2496 17.8873C17.2496 18.0373 17.1371 18.1123 17.0246 18.1123H14.8871V19.9123C14.8871 20.0623 14.7746 20.1748 14.5871 20.1748C14.4371 20.1748 14.3246 20.0623 14.3246 19.9123V16.0873C14.3246 15.8623 14.5121 15.6748 14.7371 15.6748H17.0621C17.2121 15.6748 17.2871 15.7873 17.2871 15.9373C17.3246 16.0498 17.2121 16.1623 17.0621 16.1623Z" fill="white"/>
</svg>
