<svg width="24" height="24" viewBox="0 0 24 24" fill="none" xmlns="http://www.w3.org/2000/svg">
<path d="M11.7123 8.30305C11.7123 9.90605 10.5931 11.0452 9.21252 11.0452C7.83195 11.0452 6.71278 9.90605 6.71278 8.30305C6.71278 6.70005 7.83195 5.74219 9.21252 5.74219C10.5931 5.74219 11.7123 6.70005 11.7123 8.30305Z" stroke="white" stroke-width="1.5" stroke-linecap="round" stroke-linejoin="round"/>
<path d="M15.7272 17.5146C15.7272 19.1634 13.7989 20.5001 9.36362 20.5001C4.92837 20.5001 3 19.1634 3 17.5146C3 15.8658 5.84909 14.5292 9.36362 14.5292C12.8782 14.5292 15.7272 15.8658 15.7272 17.5146Z" stroke="white" stroke-width="1.5" stroke-linecap="round" stroke-linejoin="round"/>
<path d="M17.3171 3L18.2185 4.94108L20.3432 5.19858L18.7757 6.65573L19.1873 8.75595L17.3171 7.71544L15.4469 8.75595L15.8585 6.65573L14.291 5.19858L16.4157 4.94108L17.3171 3Z" stroke="white" stroke-width="1.5" stroke-linecap="round" stroke-linejoin="round"/>
</svg>
